<svg width="24" height="24" viewBox="0 0 24 24" fill="none" xmlns="http://www.w3.org/2000/svg">
<rect width="24" height="24" rx="12" fill="#1A1A1C"/>
<path d="M12.6127 18.6524C12.9416 18.6524 13.2082 18.386 13.2082 18.0574C13.2082 17.7287 12.9416 17.4623 12.6127 17.4623C12.2838 17.4623 12.0172 17.7287 12.0172 18.0574C12.0172 18.386 12.2838 18.6524 12.6127 18.6524Z" fill="#87E64B"/>
<path d="M16.0335 14.0054L12.6783 14.3646C12.6169 14.3713 12.5852 14.2928 12.6341 14.2549L15.9175 11.7004C16.1308 11.5263 16.2665 11.255 16.2083 10.9645C16.15 10.5191 15.7818 10.2286 15.3168 10.2868L11.7494 10.8086C11.6864 10.8179 11.6526 10.7374 11.7031 10.6989L15.2393 8.001C15.9373 7.45892 15.995 6.39347 15.3558 5.77395C14.7743 5.1929 13.8439 5.21213 13.2624 5.79318L7.56407 11.584C7.35083 11.8163 7.25409 12.1261 7.31234 12.4556C7.40908 12.9785 7.93231 13.3272 8.45605 13.2305L11.5278 12.6042C11.5944 12.5907 11.6308 12.6796 11.5731 12.716L8.16479 14.8957C7.73831 15.167 7.54483 15.6509 7.68005 16.1353C7.8158 16.7746 8.45553 17.1425 9.0755 16.9876L14.17 15.7335C14.2272 15.7195 14.2693 15.786 14.2324 15.8318L13.4366 16.813C13.2234 17.0843 13.5724 17.4523 13.8631 17.2392L16.4798 15.0896C16.9447 14.7024 16.6347 13.9467 16.034 14.0049L16.0335 14.0054Z" fill="#87E64B"/>
</svg>
